<svg width="17" height="20" viewBox="0 0 17 20" fill="none" xmlns="http://www.w3.org/2000/svg">
<path d="M11.4766 9.27363C12.7564 8.34031 13.5897 6.82984 13.5897 5.1282C13.5897 2.30051 11.2892 0 8.46152 0C5.63383 0 3.33332 2.30051 3.33332 5.1282C3.33332 6.82984 4.16664 8.34031 5.44641 9.27363C2.26516 10.491 0 13.5754 0 17.1795C0 18.7347 1.26527 20 2.82051 20H14.1025C15.6578 20 16.923 18.7347 16.923 17.1795C16.923 13.5754 14.6579 10.491 11.4766 9.27363ZM4.8718 5.1282C4.8718 3.14883 6.48215 1.53848 8.46152 1.53848C10.4409 1.53848 12.0512 3.14883 12.0512 5.1282C12.0512 7.10758 10.4409 8.71797 8.46152 8.71797C6.48215 8.71797 4.8718 7.10758 4.8718 5.1282ZM14.1025 18.4615H2.82051C2.11359 18.4615 1.53848 17.8864 1.53848 17.1795C1.53848 13.362 4.6441 10.2564 8.46156 10.2564C12.279 10.2564 15.3846 13.362 15.3846 17.1795C15.3846 17.8864 14.8095 18.4615 14.1025 18.4615Z" fill="black"/>
</svg>
