<svg
                            width="21"
                            height="20"
                            viewBox="0 0 21 20"
                            fill="none"
                            xmlns="http://www.w3.org/2000/svg"
                        >
                            <path
                                d="M19.9688 19L13.9688 13M1.96875 8C1.96875 8.91925 2.14981 9.82951 2.50159 10.6788C2.85338 11.5281 3.36899 12.2997 4.019 12.9497C4.66901 13.5998 5.44069 14.1154 6.28997 14.4672C7.13925 14.8189 8.0495 15 8.96875 15C9.888 15 10.7983 14.8189 11.6475 14.4672C12.4968 14.1154 13.2685 13.5998 13.9185 12.9497C14.5685 12.2997 15.0841 11.5281 15.4359 10.6788C15.7877 9.82951 15.9688 8.91925 15.9688 8C15.9688 7.08075 15.7877 6.1705 15.4359 5.32122C15.0841 4.47194 14.5685 3.70026 13.9185 3.05025C13.2685 2.40024 12.4968 1.88463 11.6475 1.53284C10.7983 1.18106 9.888 1 8.96875 1C8.0495 1 7.13925 1.18106 6.28997 1.53284C5.44069 1.88463 4.66901 2.40024 4.019 3.05025C3.36899 3.70026 2.85338 4.47194 2.50159 5.32122C2.14981 6.1705 1.96875 7.08075 1.96875 8Z"
                                stroke="white"

                            />
                        </svg> 